<svg width="70" height="70" viewBox="0 0 70 70" fill="none" xmlns="http://www.w3.org/2000/svg">
<path d="M61.2499 29.1667C61.1965 27.3809 60.6858 25.6387 59.7666 24.1067C58.8474 22.5747 57.5505 21.3042 55.9999 20.4167C55.6281 17.8761 54.353 15.5546 52.4084 13.8779C50.4639 12.2012 47.9801 11.2815 45.4124 11.2875C44.4278 11.2858 43.4472 11.4133 42.4958 11.6667C40.4882 9.75002 37.8193 8.68057 35.0437 8.68057C32.2681 8.68057 29.5992 9.75002 27.5916 11.6667C26.6401 11.4133 25.6595 11.2858 24.6749 11.2875C22.0973 11.2674 19.5994 12.1807 17.6426 13.8587C15.6858 15.5367 14.4023 17.8661 14.0291 20.4167C12.4731 21.3006 11.1704 22.5695 10.2459 24.1017C9.32147 25.634 8.80632 27.3781 8.74992 29.1667C7.97637 29.1667 7.2345 29.474 6.68752 30.021C6.14054 30.5679 5.83325 31.3098 5.83325 32.0834C5.83338 37.2031 7.18113 42.2325 9.74103 46.6663C12.3009 51.1 15.9828 54.7818 20.4166 57.3417V61.25C20.4166 62.0236 20.7239 62.7654 21.2709 63.3124C21.8178 63.8594 22.5597 64.1667 23.3333 64.1667H46.6666C47.4401 64.1667 48.182 63.8594 48.729 63.3124C49.276 62.7654 49.5832 62.0236 49.5832 61.25V57.3417C54.017 54.7818 57.6989 51.1 60.2588 46.6663C62.8187 42.2325 64.1665 37.2031 64.1666 32.0834C64.1666 31.3098 63.8593 30.5679 63.3123 30.021C62.7653 29.474 62.0235 29.1667 61.2499 29.1667ZM14.5833 29.1667C14.6573 28.2452 15.0051 27.3669 15.582 26.6445C16.1589 25.9221 16.9385 25.3886 17.8208 25.1125L20.2416 24.3542L19.7749 21.875C19.7825 21.2469 19.9138 20.6263 20.1613 20.0489C20.4087 19.4715 20.7675 18.9484 21.2171 18.5097C21.6667 18.0709 22.1983 17.725 22.7816 17.4917C23.3649 17.2584 23.9884 17.1423 24.6166 17.15C25.4589 17.1452 26.2897 17.3454 27.0374 17.7334L29.3999 19.0459L30.8582 16.8C31.3143 16.1203 31.9307 15.5632 32.653 15.178C33.3753 14.7928 34.1813 14.5913 34.9999 14.5913C35.8185 14.5913 36.6245 14.7928 37.3468 15.178C38.0691 15.5632 38.6855 16.1203 39.1416 16.8L40.5999 19.0459L42.9624 17.7334C43.7101 17.3454 44.5409 17.1452 45.3833 17.15C46.6448 17.1342 47.8621 17.6143 48.7731 18.4871C49.6841 19.36 50.216 20.5556 50.2541 21.8167L49.7874 24.2959L52.1791 25.1125C53.0613 25.3886 53.841 25.9221 54.4178 26.6445C54.9947 27.3669 55.3425 28.2452 55.4166 29.1667H14.5833Z" fill="#066426"/>
</svg>
