<svg width="60" height="60" viewBox="0 0 60 60" fill="none" xmlns="http://www.w3.org/2000/svg">
<path d="M9.99988 10H20.0249V5H4.99988V20H9.99988V10ZM9.99988 40H4.99988V55H20.0249V50H9.99988V40ZM49.9999 50H39.9999V55H54.9999V40H49.9999V50ZM39.9999 10H49.9999V20H54.9999V5H39.9999V10Z" fill="#066426"/>
<path d="M12.4999 27.5H27.4999V12.5H12.4999V27.5ZM17.4999 17.5H22.4999V22.5H17.4999V17.5ZM12.4999 47.5H27.4999V32.5H12.4999V47.5ZM17.4999 37.5H22.4999V42.5H17.4999V37.5ZM47.4999 12.5H32.4999V27.5H47.4999V12.5ZM42.4999 22.5H37.4999V17.5H42.4999V22.5ZM32.5249 32.5H37.5249V37.5H32.5249V32.5ZM37.5249 37.5H42.5249V42.5H37.5249V37.5ZM42.5249 42.5H47.5249V47.5H42.5249V42.5ZM42.5249 32.5H47.5249V37.5H42.5249V32.5Z" fill="#066426"/>
</svg>
