<svg width="372" height="111" viewBox="0 0 372 111" fill="none" xmlns="http://www.w3.org/2000/svg">
<path d="M87.1667 50.2659C87.0904 47.7148 86.3607 45.2259 85.0476 43.0373C83.7345 40.8488 81.8818 39.0338 79.6667 37.7659C79.1355 34.1365 77.314 30.8201 74.536 28.4248C71.758 26.0294 68.2097 24.7156 64.5417 24.7242C63.1351 24.7218 61.7342 24.9039 60.375 25.2659C57.507 22.5278 53.6943 21 49.7292 21C45.764 21 41.9513 22.5278 39.0833 25.2659C37.7241 24.9039 36.3233 24.7218 34.9167 24.7242C31.2343 24.6955 27.6659 26.0002 24.8705 28.3973C22.0751 30.7945 20.2415 34.1222 19.7083 37.7659C17.4855 39.0286 15.6244 40.8413 14.3038 43.0302C12.9832 45.2191 12.2472 47.7107 12.1667 50.2659C11.0616 50.2659 10.0018 50.7049 9.22039 51.4863C8.43899 52.2677 8 53.3275 8 54.4326C8.00019 61.7464 9.92553 68.9314 13.5825 75.2653C17.2395 81.5992 22.4994 86.859 28.8333 90.5159V96.0992C28.8333 97.2043 29.2723 98.2641 30.0537 99.0455C30.8351 99.8269 31.8949 100.266 33 100.266H66.3333C67.4384 100.266 68.4982 99.8269 69.2796 99.0455C70.061 98.2641 70.5 97.2043 70.5 96.0992V90.5159C76.834 86.859 82.0938 81.5992 85.7508 75.2653C89.4078 68.9314 91.3332 61.7464 91.3333 54.4326C91.3333 53.3275 90.8944 52.2677 90.113 51.4863C89.3316 50.7049 88.2717 50.2659 87.1667 50.2659ZM20.5 50.2659C20.6058 48.9495 21.1027 47.6948 21.9268 46.6628C22.7509 45.6308 23.8646 44.8687 25.125 44.4742L28.5833 43.3909L27.9167 39.8492C27.9275 38.9518 28.1151 38.0654 28.4686 37.2405C28.8221 36.4156 29.3346 35.6684 29.9769 35.0416C30.6192 34.4148 31.3786 33.9206 32.2119 33.5874C33.0452 33.2541 33.9359 33.0882 34.8333 33.0992C36.0366 33.0923 37.2236 33.3783 38.2917 33.9326L41.6667 35.8076L43.75 32.5992C44.4015 31.6281 45.2821 30.8323 46.314 30.2821C47.3458 29.7318 48.4973 29.4439 49.6667 29.4439C50.8361 29.4439 51.9875 29.7318 53.0194 30.2821C54.0512 30.8323 54.9318 31.6281 55.5833 32.5992L57.6667 35.8076L61.0417 33.9326C62.1098 33.3783 63.2967 33.0923 64.5 33.0992C66.3022 33.0766 68.0412 33.7625 69.3427 35.0094C70.6441 36.2563 71.4039 37.9644 71.4583 39.7659L70.7917 43.3076L74.2083 44.4742C75.4687 44.8687 76.5824 45.6308 77.4065 46.6628C78.2306 47.6948 78.7275 48.9495 78.8333 50.2659H20.5Z" fill="#066426"/>
<mask id="path-2-outside-1_147_443" maskUnits="userSpaceOnUse" x="92" y="35" width="263" height="65" fill="black">
<rect fill="white" x="92" y="35" width="263" height="65"/>
<path d="M132.04 59.5C131.722 58.3939 131.275 57.4167 130.699 56.5682C130.124 55.7045 129.419 54.9773 128.586 54.3864C127.768 53.7803 126.828 53.3182 125.768 53C124.722 52.6818 123.563 52.5227 122.29 52.5227C119.912 52.5227 117.821 53.1136 116.018 54.2955C114.23 55.4773 112.836 57.197 111.836 59.4545C110.836 61.697 110.336 64.4394 110.336 67.6818C110.336 70.9242 110.828 73.6818 111.813 75.9545C112.798 78.2273 114.192 79.9621 115.995 81.1591C117.798 82.3409 119.927 82.9318 122.381 82.9318C124.609 82.9318 126.51 82.5379 128.086 81.75C129.677 80.947 130.889 79.8182 131.722 78.3636C132.571 76.9091 132.995 75.1894 132.995 73.2045L134.995 73.5H122.995V66.0909H142.472V71.9545C142.472 76.0455 141.609 79.5606 139.881 82.5C138.154 85.4242 135.775 87.6818 132.745 89.2727C129.715 90.8485 126.245 91.6364 122.336 91.6364C117.972 91.6364 114.139 90.6742 110.836 88.75C107.533 86.8106 104.957 84.0606 103.109 80.5C101.275 76.9242 100.359 72.6818 100.359 67.7727C100.359 64 100.904 60.6364 101.995 57.6818C103.101 54.7121 104.646 52.197 106.631 50.1364C108.616 48.0758 110.927 46.5076 113.563 45.4318C116.199 44.3561 119.055 43.8182 122.131 43.8182C124.768 43.8182 127.222 44.2045 129.495 44.9773C131.768 45.7348 133.783 46.8106 135.54 48.2045C137.313 49.5985 138.76 51.2576 139.881 53.1818C141.002 55.0909 141.722 57.197 142.04 59.5H132.04ZM152.242 91V56.0909H161.629V62.1818H161.992C162.629 60.0152 163.697 58.3788 165.197 57.2727C166.697 56.1515 168.424 55.5909 170.379 55.5909C170.864 55.5909 171.386 55.6212 171.947 55.6818C172.508 55.7424 173 55.8258 173.424 55.9318V64.5227C172.97 64.3864 172.341 64.2652 171.538 64.1591C170.735 64.053 170 64 169.333 64C167.909 64 166.636 64.3106 165.515 64.9318C164.409 65.5379 163.53 66.3864 162.879 67.4773C162.242 68.5682 161.924 69.8258 161.924 71.25V91H152.242ZM189.944 91.6591C187.717 91.6591 185.732 91.2727 183.99 90.5C182.247 89.7121 180.869 88.553 179.854 87.0227C178.854 85.4773 178.354 83.553 178.354 81.25C178.354 79.3106 178.71 77.6818 179.422 76.3636C180.134 75.0455 181.104 73.9848 182.331 73.1818C183.558 72.3788 184.952 71.7727 186.513 71.3636C188.088 70.9545 189.74 70.6667 191.467 70.5C193.497 70.2879 195.134 70.0909 196.376 69.9091C197.619 69.7121 198.52 69.4242 199.081 69.0455C199.641 68.6667 199.922 68.1061 199.922 67.3636V67.2273C199.922 65.7879 199.467 64.6742 198.558 63.8864C197.664 63.0985 196.391 62.7045 194.74 62.7045C192.997 62.7045 191.611 63.0909 190.581 63.8636C189.55 64.6212 188.869 65.5758 188.535 66.7273L179.581 66C180.035 63.8788 180.929 62.0455 182.263 60.5C183.596 58.9394 185.316 57.7424 187.422 56.9091C189.543 56.0606 191.997 55.6364 194.785 55.6364C196.725 55.6364 198.581 55.8636 200.354 56.3182C202.141 56.7727 203.725 57.4773 205.104 58.4318C206.497 59.3864 207.596 60.6136 208.399 62.1136C209.202 63.5985 209.604 65.3788 209.604 67.4545V91H200.422V86.1591H200.149C199.588 87.25 198.838 88.2121 197.899 89.0455C196.96 89.8636 195.831 90.5076 194.513 90.9773C193.194 91.4318 191.672 91.6591 189.944 91.6591ZM192.717 84.9773C194.141 84.9773 195.399 84.697 196.49 84.1364C197.581 83.5606 198.437 82.7879 199.058 81.8182C199.679 80.8485 199.99 79.75 199.99 78.5227V74.8182C199.687 75.0152 199.27 75.197 198.74 75.3636C198.225 75.5152 197.641 75.6591 196.99 75.7955C196.338 75.9167 195.687 76.0303 195.035 76.1364C194.384 76.2273 193.793 76.3106 193.263 76.3864C192.126 76.553 191.134 76.8182 190.285 77.1818C189.437 77.5455 188.778 78.0379 188.308 78.6591C187.838 79.2652 187.604 80.0227 187.604 80.9318C187.604 82.25 188.081 83.2576 189.035 83.9545C190.005 84.6364 191.232 84.9773 192.717 84.9773ZM236.357 91H219.857V44.4545H236.493C241.175 44.4545 245.205 45.3864 248.584 47.25C251.963 49.0985 254.561 51.7576 256.379 55.2273C258.213 58.697 259.129 62.8485 259.129 67.6818C259.129 72.5303 258.213 76.697 256.379 80.1818C254.561 83.6667 251.948 86.3409 248.539 88.2045C245.145 90.0682 241.084 91 236.357 91ZM229.698 82.5682H235.948C238.857 82.5682 241.304 82.053 243.289 81.0227C245.289 79.9773 246.789 78.3636 247.789 76.1818C248.804 73.9848 249.311 71.1515 249.311 67.6818C249.311 64.2424 248.804 61.4318 247.789 59.25C246.789 57.0682 245.296 55.4621 243.311 54.4318C241.326 53.4015 238.879 52.8864 235.97 52.8864H229.698V82.5682ZM284.706 91.6818C281.116 91.6818 278.025 90.9545 275.434 89.5C272.858 88.0303 270.873 85.9545 269.479 83.2727C268.085 80.5758 267.388 77.3864 267.388 73.7045C267.388 70.1136 268.085 66.9621 269.479 64.25C270.873 61.5379 272.835 59.4242 275.366 57.9091C277.911 56.3939 280.896 55.6364 284.32 55.6364C286.623 55.6364 288.767 56.0076 290.752 56.75C292.752 57.4773 294.494 58.5758 295.979 60.0455C297.479 61.5152 298.646 63.3636 299.479 65.5909C300.313 67.803 300.729 70.3939 300.729 73.3636V76.0227H271.252V70.0227H291.616C291.616 68.6288 291.313 67.3939 290.706 66.3182C290.1 65.2424 289.26 64.4015 288.184 63.7955C287.123 63.1742 285.888 62.8636 284.479 62.8636C283.01 62.8636 281.706 63.2045 280.57 63.8864C279.449 64.553 278.57 65.4545 277.934 66.5909C277.297 67.7121 276.972 68.9621 276.956 70.3409V76.0455C276.956 77.7727 277.275 79.2652 277.911 80.5227C278.563 81.7803 279.479 82.75 280.661 83.4318C281.843 84.1136 283.244 84.4545 284.866 84.4545C285.941 84.4545 286.926 84.303 287.82 84C288.714 83.697 289.479 83.2424 290.116 82.6364C290.752 82.0303 291.237 81.2879 291.57 80.4091L300.525 81C300.07 83.1515 299.138 85.0303 297.729 86.6364C296.335 88.2273 294.532 89.4697 292.32 90.3636C290.123 91.2424 287.585 91.6818 284.706 91.6818ZM317.073 56.0909L323.482 68.2955L330.051 56.0909H339.982L329.869 73.5455L340.255 91H330.369L323.482 78.9318L316.71 91H306.71L317.073 73.5455L307.073 56.0909H317.073Z"/>
</mask>
<path d="M132.04 59.5C131.722 58.3939 131.275 57.4167 130.699 56.5682C130.124 55.7045 129.419 54.9773 128.586 54.3864C127.768 53.7803 126.828 53.3182 125.768 53C124.722 52.6818 123.563 52.5227 122.29 52.5227C119.912 52.5227 117.821 53.1136 116.018 54.2955C114.23 55.4773 112.836 57.197 111.836 59.4545C110.836 61.697 110.336 64.4394 110.336 67.6818C110.336 70.9242 110.828 73.6818 111.813 75.9545C112.798 78.2273 114.192 79.9621 115.995 81.1591C117.798 82.3409 119.927 82.9318 122.381 82.9318C124.609 82.9318 126.51 82.5379 128.086 81.75C129.677 80.947 130.889 79.8182 131.722 78.3636C132.571 76.9091 132.995 75.1894 132.995 73.2045L134.995 73.5H122.995V66.0909H142.472V71.9545C142.472 76.0455 141.609 79.5606 139.881 82.5C138.154 85.4242 135.775 87.6818 132.745 89.2727C129.715 90.8485 126.245 91.6364 122.336 91.6364C117.972 91.6364 114.139 90.6742 110.836 88.75C107.533 86.8106 104.957 84.0606 103.109 80.5C101.275 76.9242 100.359 72.6818 100.359 67.7727C100.359 64 100.904 60.6364 101.995 57.6818C103.101 54.7121 104.646 52.197 106.631 50.1364C108.616 48.0758 110.927 46.5076 113.563 45.4318C116.199 44.3561 119.055 43.8182 122.131 43.8182C124.768 43.8182 127.222 44.2045 129.495 44.9773C131.768 45.7348 133.783 46.8106 135.54 48.2045C137.313 49.5985 138.76 51.2576 139.881 53.1818C141.002 55.0909 141.722 57.197 142.04 59.5H132.04ZM152.242 91V56.0909H161.629V62.1818H161.992C162.629 60.0152 163.697 58.3788 165.197 57.2727C166.697 56.1515 168.424 55.5909 170.379 55.5909C170.864 55.5909 171.386 55.6212 171.947 55.6818C172.508 55.7424 173 55.8258 173.424 55.9318V64.5227C172.97 64.3864 172.341 64.2652 171.538 64.1591C170.735 64.053 170 64 169.333 64C167.909 64 166.636 64.3106 165.515 64.9318C164.409 65.5379 163.53 66.3864 162.879 67.4773C162.242 68.5682 161.924 69.8258 161.924 71.25V91H152.242ZM189.944 91.6591C187.717 91.6591 185.732 91.2727 183.99 90.5C182.247 89.7121 180.869 88.553 179.854 87.0227C178.854 85.4773 178.354 83.553 178.354 81.25C178.354 79.3106 178.71 77.6818 179.422 76.3636C180.134 75.0455 181.104 73.9848 182.331 73.1818C183.558 72.3788 184.952 71.7727 186.513 71.3636C188.088 70.9545 189.74 70.6667 191.467 70.5C193.497 70.2879 195.134 70.0909 196.376 69.9091C197.619 69.7121 198.52 69.4242 199.081 69.0455C199.641 68.6667 199.922 68.1061 199.922 67.3636V67.2273C199.922 65.7879 199.467 64.6742 198.558 63.8864C197.664 63.0985 196.391 62.7045 194.74 62.7045C192.997 62.7045 191.611 63.0909 190.581 63.8636C189.55 64.6212 188.869 65.5758 188.535 66.7273L179.581 66C180.035 63.8788 180.929 62.0455 182.263 60.5C183.596 58.9394 185.316 57.7424 187.422 56.9091C189.543 56.0606 191.997 55.6364 194.785 55.6364C196.725 55.6364 198.581 55.8636 200.354 56.3182C202.141 56.7727 203.725 57.4773 205.104 58.4318C206.497 59.3864 207.596 60.6136 208.399 62.1136C209.202 63.5985 209.604 65.3788 209.604 67.4545V91H200.422V86.1591H200.149C199.588 87.25 198.838 88.2121 197.899 89.0455C196.96 89.8636 195.831 90.5076 194.513 90.9773C193.194 91.4318 191.672 91.6591 189.944 91.6591ZM192.717 84.9773C194.141 84.9773 195.399 84.697 196.49 84.1364C197.581 83.5606 198.437 82.7879 199.058 81.8182C199.679 80.8485 199.99 79.75 199.99 78.5227V74.8182C199.687 75.0152 199.27 75.197 198.74 75.3636C198.225 75.5152 197.641 75.6591 196.99 75.7955C196.338 75.9167 195.687 76.0303 195.035 76.1364C194.384 76.2273 193.793 76.3106 193.263 76.3864C192.126 76.553 191.134 76.8182 190.285 77.1818C189.437 77.5455 188.778 78.0379 188.308 78.6591C187.838 79.2652 187.604 80.0227 187.604 80.9318C187.604 82.25 188.081 83.2576 189.035 83.9545C190.005 84.6364 191.232 84.9773 192.717 84.9773ZM236.357 91H219.857V44.4545H236.493C241.175 44.4545 245.205 45.3864 248.584 47.25C251.963 49.0985 254.561 51.7576 256.379 55.2273C258.213 58.697 259.129 62.8485 259.129 67.6818C259.129 72.5303 258.213 76.697 256.379 80.1818C254.561 83.6667 251.948 86.3409 248.539 88.2045C245.145 90.0682 241.084 91 236.357 91ZM229.698 82.5682H235.948C238.857 82.5682 241.304 82.053 243.289 81.0227C245.289 79.9773 246.789 78.3636 247.789 76.1818C248.804 73.9848 249.311 71.1515 249.311 67.6818C249.311 64.2424 248.804 61.4318 247.789 59.25C246.789 57.0682 245.296 55.4621 243.311 54.4318C241.326 53.4015 238.879 52.8864 235.97 52.8864H229.698V82.5682ZM284.706 91.6818C281.116 91.6818 278.025 90.9545 275.434 89.5C272.858 88.0303 270.873 85.9545 269.479 83.2727C268.085 80.5758 267.388 77.3864 267.388 73.7045C267.388 70.1136 268.085 66.9621 269.479 64.25C270.873 61.5379 272.835 59.4242 275.366 57.9091C277.911 56.3939 280.896 55.6364 284.32 55.6364C286.623 55.6364 288.767 56.0076 290.752 56.75C292.752 57.4773 294.494 58.5758 295.979 60.0455C297.479 61.5152 298.646 63.3636 299.479 65.5909C300.313 67.803 300.729 70.3939 300.729 73.3636V76.0227H271.252V70.0227H291.616C291.616 68.6288 291.313 67.3939 290.706 66.3182C290.1 65.2424 289.26 64.4015 288.184 63.7955C287.123 63.1742 285.888 62.8636 284.479 62.8636C283.01 62.8636 281.706 63.2045 280.57 63.8864C279.449 64.553 278.57 65.4545 277.934 66.5909C277.297 67.7121 276.972 68.9621 276.956 70.3409V76.0455C276.956 77.7727 277.275 79.2652 277.911 80.5227C278.563 81.7803 279.479 82.75 280.661 83.4318C281.843 84.1136 283.244 84.4545 284.866 84.4545C285.941 84.4545 286.926 84.303 287.82 84C288.714 83.697 289.479 83.2424 290.116 82.6364C290.752 82.0303 291.237 81.2879 291.57 80.4091L300.525 81C300.07 83.1515 299.138 85.0303 297.729 86.6364C296.335 88.2273 294.532 89.4697 292.32 90.3636C290.123 91.2424 287.585 91.6818 284.706 91.6818ZM317.073 56.0909L323.482 68.2955L330.051 56.0909H339.982L329.869 73.5455L340.255 91H330.369L323.482 78.9318L316.71 91H306.71L317.073 73.5455L307.073 56.0909H317.073Z" fill="white"/>
<path d="M132.04 59.5L124.352 61.7117L126.017 67.5H132.04V59.5ZM130.699 56.5682L124.043 61.0058L124.061 61.0331L124.08 61.0602L130.699 56.5682ZM128.586 54.3864L123.824 60.8148L123.891 60.8642L123.958 60.9122L128.586 54.3864ZM125.768 53L123.438 60.6534L123.454 60.658L123.469 60.6626L125.768 53ZM116.018 54.2955L111.632 47.6046L111.619 47.6131L111.606 47.6217L116.018 54.2955ZM111.836 59.4545L119.142 62.7128L119.146 62.7037L119.15 62.6945L111.836 59.4545ZM115.995 81.1591L111.57 87.8241L111.59 87.8371L111.609 87.8499L115.995 81.1591ZM128.086 81.75L131.664 88.9054L131.677 88.8986L131.691 88.8918L128.086 81.75ZM131.722 78.3636L124.812 74.3327L124.796 74.3596L124.781 74.3867L131.722 78.3636ZM132.995 73.2045L134.164 65.2904L124.995 63.9359V73.2045H132.995ZM134.995 73.5V81.5L136.164 65.5859L134.995 73.5ZM122.995 73.5H114.995V81.5H122.995V73.5ZM122.995 66.0909V58.0909H114.995V66.0909H122.995ZM142.472 66.0909H150.472V58.0909H142.472V66.0909ZM139.881 82.5L146.769 86.5686L146.774 86.5608L146.779 86.5531L139.881 82.5ZM132.745 89.2727L136.436 96.3705L136.45 96.3632L136.464 96.3559L132.745 89.2727ZM110.836 88.75L106.785 95.6487L106.797 95.6556L106.809 95.6625L110.836 88.75ZM103.109 80.5L95.9897 84.1499L95.9989 84.168L96.0083 84.1861L103.109 80.5ZM101.995 57.6818L94.498 54.8896L94.494 54.9002L94.4901 54.9108L101.995 57.6818ZM106.631 50.1364L112.393 55.6863L112.393 55.6863L106.631 50.1364ZM113.563 45.4318L110.541 38.0247L110.541 38.0247L113.563 45.4318ZM129.495 44.9773L126.92 52.5515L126.942 52.5592L126.965 52.5667L129.495 44.9773ZM135.54 48.2045L130.569 54.4725L130.582 54.4829L130.595 54.4932L135.54 48.2045ZM139.881 53.1818L132.969 57.2094L132.976 57.2213L132.983 57.2332L139.881 53.1818ZM142.04 59.5V67.5H151.222L149.965 58.4051L142.04 59.5ZM139.729 57.2883C139.205 55.4687 138.423 53.7034 137.319 52.0762L124.08 61.0602C124.127 61.1299 124.239 61.3192 124.352 61.7117L139.729 57.2883ZM137.356 52.1306C136.246 50.4659 134.858 49.0267 133.213 47.8605L123.958 60.9122C123.98 60.9278 124.001 60.9431 124.043 61.0058L137.356 52.1306ZM133.348 47.9579C131.724 46.7549 129.936 45.8982 128.066 45.3374L123.469 60.6626C123.721 60.7382 123.812 60.8057 123.824 60.8148L133.348 47.9579ZM128.097 45.3466C126.184 44.7644 124.226 44.5227 122.29 44.5227V60.5227C122.9 60.5227 123.26 60.5992 123.438 60.6534L128.097 45.3466ZM122.29 44.5227C118.521 44.5227 114.872 45.4813 111.632 47.6046L120.403 60.9863C120.77 60.746 121.302 60.5227 122.29 60.5227V44.5227ZM111.606 47.6217C108.357 49.7694 106.044 52.7761 104.521 56.2145L119.15 62.6945C119.627 61.6179 120.102 61.1852 120.429 60.9692L111.606 47.6217ZM104.529 56.1963C102.951 59.7366 102.336 63.6594 102.336 67.6818H118.336C118.336 65.2194 118.721 63.6573 119.142 62.7128L104.529 56.1963ZM102.336 67.6818C102.336 71.6961 102.941 75.5999 104.473 79.1354L119.154 72.7737C118.716 71.7637 118.336 70.1524 118.336 67.6818H102.336ZM104.473 79.1354C105.981 82.6164 108.3 85.6533 111.57 87.8241L120.42 74.4941C120.083 74.2709 119.615 73.8382 119.154 72.7737L104.473 79.1354ZM111.609 87.8499C114.89 90.0001 118.591 90.9318 122.381 90.9318V74.9318C121.263 74.9318 120.706 74.6817 120.38 74.4683L111.609 87.8499ZM122.381 90.9318C125.531 90.9318 128.723 90.3758 131.664 88.9054L124.508 74.5946C124.297 74.6999 123.686 74.9318 122.381 74.9318V90.9318ZM131.691 88.8918C134.587 87.4298 137.002 85.2412 138.664 82.3405L124.781 74.3867C124.758 74.4254 124.747 74.4364 124.736 74.4466C124.722 74.4595 124.654 74.5209 124.481 74.6082L131.691 88.8918ZM138.632 82.3946C140.313 79.5137 140.995 76.3508 140.995 73.2045H124.995C124.995 74.028 124.828 74.3045 124.812 74.3327L138.632 82.3946ZM131.826 81.1187L133.826 81.4141L136.164 65.5859L134.164 65.2904L131.826 81.1187ZM134.995 65.5H122.995V81.5H134.995V65.5ZM130.995 73.5V66.0909H114.995V73.5H130.995ZM122.995 74.0909H142.472V58.0909H122.995V74.0909ZM134.472 66.0909V71.9545H150.472V66.0909H134.472ZM134.472 71.9545C134.472 74.906 133.857 76.9611 132.984 78.4469L146.779 86.5531C149.36 82.1601 150.472 77.1849 150.472 71.9545H134.472ZM132.993 78.4314C132.028 80.0654 130.751 81.2839 129.026 82.1895L136.464 96.3559C140.799 94.0797 144.28 90.7831 146.769 86.5686L132.993 78.4314ZM129.054 82.175C127.319 83.0773 125.147 83.6364 122.336 83.6364V99.6364C127.343 99.6364 132.11 98.6196 136.436 96.3705L129.054 82.175ZM122.336 83.6364C119.183 83.6364 116.779 82.9535 114.863 81.8375L106.809 95.6625C111.499 98.395 116.761 99.6364 122.336 99.6364V83.6364ZM114.886 81.8513C112.945 80.7114 111.398 79.1044 110.209 76.8139L96.0083 84.1861C98.5162 89.0168 102.12 92.9098 106.785 95.6487L114.886 81.8513ZM110.227 76.8501C109.088 74.6272 108.359 71.6899 108.359 67.7727H92.3585C92.3585 73.6737 93.4627 79.2213 95.9897 84.1499L110.227 76.8501ZM108.359 67.7727C108.359 64.7635 108.794 62.364 109.5 60.4528L94.4901 54.9108C93.014 58.9087 92.3585 63.2365 92.3585 67.7727H108.359ZM109.492 60.474C110.256 58.4217 111.248 56.8752 112.393 55.6863L100.869 44.5864C98.045 47.5187 95.9457 51.0026 94.498 54.8896L109.492 60.474ZM112.393 55.6863C113.608 54.4249 114.987 53.4912 116.585 52.8389L110.541 38.0247C106.867 39.5239 103.624 41.7266 100.869 44.5864L112.393 55.6863ZM116.585 52.8389C118.188 52.1851 120.008 51.8182 122.131 51.8182V35.8182C118.103 35.8182 114.211 36.527 110.541 38.0247L116.585 52.8389ZM122.131 51.8182C123.977 51.8182 125.554 52.087 126.92 52.5515L132.07 37.4031C128.891 36.3221 125.558 35.8182 122.131 35.8182V51.8182ZM126.965 52.5667C128.414 53.0496 129.59 53.6963 130.569 54.4725L140.511 41.9366C137.975 39.9249 135.122 38.4201 132.025 37.3878L126.965 52.5667ZM130.595 54.4932C131.586 55.2722 132.362 56.1672 132.969 57.2094L146.793 49.1542C145.158 46.3479 143.04 43.9248 140.485 41.9159L130.595 54.4932ZM132.983 57.2332C133.544 58.1888 133.934 59.2821 134.116 60.5949L149.965 58.4051C149.51 55.1118 148.461 51.993 146.78 49.1304L132.983 57.2332ZM142.04 51.5H132.04V67.5H142.04V51.5ZM152.242 91H144.242V99H152.242V91ZM152.242 56.0909V48.0909H144.242V56.0909H152.242ZM161.629 56.0909H169.629V48.0909H161.629V56.0909ZM161.629 62.1818H153.629V70.1818H161.629V62.1818ZM161.992 62.1818V70.1818H167.981L169.668 64.4362L161.992 62.1818ZM165.197 57.2727L169.945 63.7115L169.966 63.6961L169.987 63.6805L165.197 57.2727ZM171.947 55.6818L172.807 47.7282L172.807 47.7282L171.947 55.6818ZM173.424 55.9318H181.424V49.6856L175.364 48.1707L173.424 55.9318ZM173.424 64.5227L171.125 72.1853L181.424 75.275V64.5227H173.424ZM165.515 64.9318L169.359 71.9476L169.376 71.9386L169.392 71.9295L165.515 64.9318ZM162.879 67.4773L156.01 63.3753L155.989 63.4107L155.969 63.4463L162.879 67.4773ZM161.924 91V99H169.924V91H161.924ZM160.242 91V56.0909H144.242V91H160.242ZM152.242 64.0909H161.629V48.0909H152.242V64.0909ZM153.629 56.0909V62.1818H169.629V56.0909H153.629ZM161.629 70.1818H161.992V54.1818H161.629V70.1818ZM169.668 64.4362C169.8 63.989 169.924 63.7735 169.97 63.7025C170.008 63.6446 170 63.6707 169.945 63.7115L160.449 50.8339C157.264 53.1823 155.339 56.4481 154.317 59.9274L169.668 64.4362ZM169.987 63.6805C170.027 63.6506 170.051 63.6368 170.062 63.6314C170.072 63.6261 170.079 63.6233 170.087 63.6206C170.094 63.6182 170.176 63.5909 170.379 63.5909V47.5909C166.778 47.5909 163.353 48.6628 160.407 50.865L169.987 63.6805ZM170.379 63.5909C170.535 63.5909 170.767 63.6009 171.087 63.6355L172.807 47.7282C172.005 47.6415 171.193 47.5909 170.379 47.5909V63.5909ZM171.087 63.6355C171.228 63.6507 171.332 63.6658 171.402 63.6776C171.473 63.6896 171.498 63.6964 171.484 63.693L175.364 48.1707C174.5 47.9547 173.633 47.8175 172.807 47.7282L171.087 63.6355ZM165.424 55.9318V64.5227H181.424V55.9318H165.424ZM175.723 56.8601C174.673 56.545 173.561 56.3568 172.585 56.228L170.49 72.0902C170.774 72.1277 170.972 72.1607 171.097 72.1849C171.232 72.2109 171.227 72.2159 171.125 72.1853L175.723 56.8601ZM172.585 56.228C171.506 56.0854 170.415 56 169.333 56V72C169.585 72 169.964 72.0207 170.49 72.0902L172.585 56.228ZM169.333 56C166.706 56 164.073 56.5848 161.638 57.9341L169.392 71.9295C169.357 71.9488 169.321 71.9657 169.286 71.9793C169.251 71.9929 169.224 72.0008 169.207 72.0049C169.171 72.0136 169.205 72 169.333 72V56ZM161.671 57.916C159.305 59.2121 157.387 61.0708 156.01 63.3753L169.747 71.5792C169.725 71.6159 169.672 71.692 169.583 71.7779C169.494 71.8641 169.41 71.9197 169.359 71.9476L161.671 57.916ZM155.969 63.4463C154.531 65.9109 153.924 68.594 153.924 71.25H169.924C169.924 71.1356 169.937 71.1291 169.918 71.2009C169.899 71.278 169.858 71.3896 169.789 71.5082L155.969 63.4463ZM153.924 71.25V91H169.924V71.25H153.924ZM161.924 83H152.242V99H161.924V83ZM183.99 90.5L180.694 97.7894L180.72 97.8014L180.747 97.8131L183.99 90.5ZM179.854 87.0227L173.137 91.3687L173.162 91.4071L173.187 91.4451L179.854 87.0227ZM179.422 76.3636L172.383 72.5612L172.383 72.5612L179.422 76.3636ZM182.331 73.1818L177.951 66.4875L177.951 66.4875L182.331 73.1818ZM186.513 71.3636L184.502 63.6203L184.493 63.6227L184.484 63.6251L186.513 71.3636ZM191.467 70.5L192.236 78.463L192.267 78.46L192.298 78.4567L191.467 70.5ZM196.376 69.9091L197.535 77.8248L197.582 77.8179L197.629 77.8104L196.376 69.9091ZM199.081 69.0455L194.602 62.4167L194.602 62.4167L199.081 69.0455ZM198.558 63.8864L193.268 69.888L193.293 69.9101L193.319 69.9319L198.558 63.8864ZM190.581 63.8636L195.32 70.3088L195.35 70.2864L195.381 70.2636L190.581 63.8636ZM188.535 66.7273L187.888 74.701L194.402 75.2301L196.22 68.9517L188.535 66.7273ZM179.581 66L171.758 64.3238L169.849 73.2359L178.933 73.9737L179.581 66ZM182.263 60.5L188.32 65.7259L188.332 65.7113L188.345 65.6966L182.263 60.5ZM187.422 56.9091L190.365 64.3479L190.379 64.3424L190.393 64.3369L187.422 56.9091ZM200.354 56.3182L198.367 64.0675L198.374 64.0695L198.382 64.0715L200.354 56.3182ZM205.104 58.4318L200.55 65.0094L200.567 65.021L200.583 65.0325L205.104 58.4318ZM208.399 62.1136L201.346 65.8894L201.354 65.9044L201.362 65.9193L208.399 62.1136ZM209.604 91V99H217.604V91H209.604ZM200.422 91H192.422V99H200.422V91ZM200.422 86.1591H208.422V78.1591H200.422V86.1591ZM200.149 86.1591V78.1591H195.266L193.034 82.5025L200.149 86.1591ZM197.899 89.0455L203.153 95.0781L203.181 95.0542L203.208 95.03L197.899 89.0455ZM194.513 90.9773L197.121 98.5403L197.159 98.5269L197.198 98.5132L194.513 90.9773ZM196.49 84.1364L200.146 91.2518L200.185 91.2318L200.224 91.2114L196.49 84.1364ZM199.058 81.8182L192.322 77.5028L192.322 77.5028L199.058 81.8182ZM199.99 74.8182H207.99V60.0767L195.63 68.1106L199.99 74.8182ZM198.74 75.3636L200.997 83.0386L201.068 83.0177L201.139 82.9956L198.74 75.3636ZM196.99 75.7955L198.453 83.6605L198.541 83.6441L198.629 83.6258L196.99 75.7955ZM195.035 76.1364L196.141 84.0596L196.231 84.047L196.321 84.0324L195.035 76.1364ZM193.263 76.3864L192.131 68.4668L192.116 68.4689L192.102 68.471L193.263 76.3864ZM190.285 77.1818L193.437 84.535L193.437 84.535L190.285 77.1818ZM188.308 78.6591L194.631 83.5597L194.661 83.522L194.689 83.484L188.308 78.6591ZM189.035 83.9545L184.318 90.4156L184.375 90.4577L184.434 90.4988L189.035 83.9545ZM189.944 83.6591C188.648 83.6591 187.797 83.4368 187.233 83.1869L180.747 97.8131C183.668 99.1087 186.786 99.6591 189.944 99.6591V83.6591ZM187.286 83.2106C186.855 83.0156 186.668 82.8238 186.52 82.6004L173.187 91.4451C175.069 94.2823 177.64 96.4087 180.694 97.7894L187.286 83.2106ZM186.57 82.6767C186.567 82.6726 186.557 82.6555 186.54 82.6181C186.524 82.58 186.498 82.5128 186.471 82.4085C186.417 82.1974 186.354 81.8272 186.354 81.25H170.354C170.354 84.7085 171.111 88.2383 173.137 91.3687L186.57 82.6767ZM186.354 81.25C186.354 80.2585 186.538 80.0224 186.46 80.1661L172.383 72.5612C170.881 75.3412 170.354 78.3627 170.354 81.25H186.354ZM186.46 80.1661C186.555 79.9915 186.621 79.9349 186.711 79.8761L177.951 66.4875C175.586 68.0348 173.713 70.0994 172.383 72.5612L186.46 80.1661ZM186.711 79.8761C187.147 79.5906 187.733 79.3141 188.541 79.1022L184.484 63.6251C182.171 64.2313 179.969 65.167 177.951 66.4875L186.711 79.8761ZM188.523 79.1069C189.665 78.8103 190.9 78.5919 192.236 78.463L190.699 62.537C188.58 62.7415 186.511 63.0988 184.502 63.6203L188.523 79.1069ZM192.298 78.4567C194.38 78.2392 196.138 78.0292 197.535 77.8248L195.218 61.9934C194.13 62.1526 192.615 62.3365 190.636 62.5433L192.298 78.4567ZM197.629 77.8104C199.201 77.5613 201.517 77.0541 203.56 75.6742L194.602 62.4167C194.89 62.2218 195.129 62.1012 195.277 62.0334C195.428 61.9648 195.526 61.9325 195.551 61.9246C195.588 61.9127 195.466 61.9534 195.124 62.0078L197.629 77.8104ZM203.56 75.6742C206.563 73.645 207.922 70.4588 207.922 67.3636H191.922C191.922 66.7206 192.047 65.7809 192.556 64.7632C193.079 63.7164 193.836 62.9343 194.602 62.4167L203.56 75.6742ZM207.922 67.3636V67.2273H191.922V67.3636H207.922ZM207.922 67.2273C207.922 63.9678 206.805 60.4477 203.798 57.8409L193.319 69.9319C192.823 69.5027 192.422 68.9427 192.174 68.3357C191.941 67.7639 191.922 67.3447 191.922 67.2273H207.922ZM203.848 57.8847C201.013 55.3863 197.587 54.7045 194.74 54.7045V70.7045C195.195 70.7045 194.315 70.8107 193.268 69.888L203.848 57.8847ZM194.74 54.7045C191.87 54.7045 188.611 55.3407 185.781 57.4636L195.381 70.2636C195.013 70.5398 194.693 70.6582 194.541 70.7006C194.406 70.7382 194.448 70.7045 194.74 70.7045V54.7045ZM185.842 57.4184C183.493 59.1456 181.708 61.5415 180.851 64.5028L196.22 68.9517C196.141 69.2257 196.003 69.5224 195.807 69.7976C195.614 70.0679 195.425 70.2316 195.32 70.3088L185.842 57.4184ZM189.183 58.7535L180.228 58.0263L178.933 73.9737L187.888 74.701L189.183 58.7535ZM187.403 67.6762C187.595 66.7825 187.919 66.191 188.32 65.7259L176.205 55.2741C173.94 57.8999 172.476 60.9751 171.758 64.3238L187.403 67.6762ZM188.345 65.6966C188.746 65.2278 189.345 64.7517 190.365 64.3479L184.478 49.4703C181.287 50.7332 178.446 52.651 176.18 55.3034L188.345 65.6966ZM190.393 64.3369C191.386 63.9397 192.797 63.6364 194.785 63.6364V47.6364C191.198 47.6364 187.7 48.1816 184.451 49.4813L190.393 64.3369ZM194.785 63.6364C196.094 63.6364 197.281 63.789 198.367 64.0675L202.341 48.5689C199.881 47.9382 197.355 47.6364 194.785 47.6364V63.6364ZM198.382 64.0715C199.339 64.3146 200.03 64.6492 200.55 65.0094L209.657 51.8543C207.42 50.3053 204.944 49.2308 202.325 48.5648L198.382 64.0715ZM200.583 65.0325C200.911 65.2568 201.144 65.5122 201.346 65.8894L215.452 58.3378C214.048 55.7151 212.084 53.5159 209.624 51.8311L200.583 65.0325ZM201.362 65.9193C201.404 65.996 201.604 66.4061 201.604 67.4545H217.604C217.604 64.3514 217 61.2009 215.436 58.308L201.362 65.9193ZM201.604 67.4545V91H217.604V67.4545H201.604ZM209.604 83H200.422V99H209.604V83ZM208.422 91V86.1591H192.422V91H208.422ZM200.422 78.1591H200.149V94.1591H200.422V78.1591ZM193.034 82.5025C192.937 82.6911 192.806 82.869 192.59 83.0609L203.208 95.03C204.87 93.5552 206.24 91.8089 207.264 89.8156L193.034 82.5025ZM192.645 83.0128C192.548 83.0975 192.318 83.2664 191.827 83.4414L197.198 98.5132C199.343 97.7487 201.372 96.6298 203.153 95.0781L192.645 83.0128ZM191.905 83.4143C191.599 83.5199 190.988 83.6591 189.944 83.6591V99.6591C192.356 99.6591 194.79 99.3438 197.121 98.5403L191.905 83.4143ZM192.717 92.9773C195.208 92.9773 197.755 92.4809 200.146 91.2518L192.833 77.0209C192.876 76.9988 192.914 76.9831 192.944 76.9725C192.973 76.962 192.989 76.9585 192.988 76.9587C192.987 76.9589 192.905 76.9773 192.717 76.9773V92.9773ZM200.224 91.2114C202.447 90.038 204.375 88.3497 205.794 86.1336L192.322 77.5028C192.396 77.3869 192.49 77.2768 192.59 77.1865C192.637 77.1439 192.678 77.1124 192.709 77.091C192.74 77.0697 192.757 77.0607 192.756 77.0613L200.224 91.2114ZM205.794 86.1336C207.296 83.7901 207.99 81.1746 207.99 78.5227H191.99C191.99 78.4554 191.999 78.3004 192.059 78.0903C192.119 77.8766 192.212 77.6738 192.322 77.5028L205.794 86.1336ZM207.99 78.5227V74.8182H191.99V78.5227H207.99ZM195.63 68.1106C195.927 67.9174 196.153 67.8123 196.251 67.77C196.354 67.725 196.392 67.7158 196.341 67.7317L201.139 82.9956C202.032 82.7147 203.204 82.2704 204.35 81.5257L195.63 68.1106ZM196.483 67.6887C196.213 67.7681 195.841 67.8625 195.351 67.9651L198.629 83.6258C199.441 83.4557 200.237 83.2622 200.997 83.0386L196.483 67.6887ZM195.527 67.9304C194.934 68.0407 194.342 68.144 193.75 68.2403L196.321 84.0324C197.032 83.9167 197.743 83.7927 198.453 83.6605L195.527 67.9304ZM193.93 68.2131C193.272 68.305 192.672 68.3895 192.131 68.4668L194.394 84.306C194.914 84.2317 195.496 84.1496 196.141 84.0596L193.93 68.2131ZM192.102 68.471C190.439 68.7148 188.751 69.1355 187.134 69.8287L193.437 84.535C193.516 84.5009 193.813 84.3912 194.424 84.3017L192.102 68.471ZM187.134 69.8287C185.245 70.6381 183.378 71.9143 181.927 73.8342L194.689 83.484C194.177 84.1614 193.629 84.4528 193.437 84.535L187.134 69.8287ZM181.985 73.7585C180.236 76.0148 179.604 78.5898 179.604 80.9318H195.604C195.604 81.4556 195.441 82.5155 194.631 83.5597L181.985 73.7585ZM179.604 80.9318C179.604 84.464 181.04 88.0224 184.318 90.4156L193.753 77.4935C194.286 77.883 194.824 78.4768 195.191 79.2514C195.544 79.996 195.604 80.6204 195.604 80.9318H179.604ZM184.434 90.4988C187.057 92.3433 190.004 92.9773 192.717 92.9773V76.9773C192.582 76.9773 192.637 76.9613 192.824 77.0134C193.025 77.0693 193.32 77.1877 193.637 77.4103L184.434 90.4988ZM219.857 91H211.857V99H219.857V91ZM219.857 44.4545V36.4545H211.857V44.4545H219.857ZM248.584 47.25L244.72 54.2551L244.732 54.2617L244.744 54.2684L248.584 47.25ZM256.379 55.2273L249.293 58.9405L249.3 58.9526L249.306 58.9647L256.379 55.2273ZM256.379 80.1818L249.299 76.4571L249.293 76.4692L249.287 76.4813L256.379 80.1818ZM248.539 88.2045L244.701 81.185L244.695 81.1886L244.688 81.1922L248.539 88.2045ZM229.698 82.5682H221.698V90.5682H229.698V82.5682ZM243.289 81.0227L246.974 88.1231L246.984 88.1178L246.995 88.1125L243.289 81.0227ZM247.789 76.1818L240.526 72.8262L240.521 72.8374L240.516 72.8486L247.789 76.1818ZM247.789 59.25L240.516 62.5832L240.526 62.604L240.535 62.6248L247.789 59.25ZM243.311 54.4318L246.997 47.3314L246.997 47.3314L243.311 54.4318ZM229.698 52.8864V44.8864H221.698V52.8864H229.698ZM236.357 83H219.857V99H236.357V83ZM227.857 91V44.4545H211.857V91H227.857ZM219.857 52.4545H236.493V36.4545H219.857V52.4545ZM236.493 52.4545C240.11 52.4545 242.752 53.1697 244.72 54.2551L252.448 40.2449C247.658 37.603 242.24 36.4545 236.493 36.4545V52.4545ZM244.744 54.2684C246.714 55.3458 248.194 56.8432 249.293 58.9405L263.465 51.5141C260.928 46.672 257.212 42.8512 252.424 40.2316L244.744 54.2684ZM249.306 58.9647C250.406 61.0456 251.129 63.8537 251.129 67.6818H267.129C267.129 61.8432 266.02 56.3484 263.453 51.4898L249.306 58.9647ZM251.129 67.6818C251.129 71.5283 250.404 74.3568 249.299 76.4571L263.459 83.9065C266.021 79.0371 267.129 73.5323 267.129 67.6818H251.129ZM249.287 76.4813C248.192 78.5794 246.703 80.0904 244.701 81.185L252.376 95.2241C257.192 92.5914 260.93 88.7539 263.472 83.8823L249.287 76.4813ZM244.688 81.1922C242.708 82.2794 240.033 83 236.357 83V99C242.135 99 247.581 97.8569 252.389 95.2169L244.688 81.1922ZM229.698 90.5682H235.948V74.5682H229.698V90.5682ZM235.948 90.5682C239.767 90.5682 243.56 89.8953 246.974 88.1231L239.603 73.9223C239.047 74.2108 237.947 74.5682 235.948 74.5682V90.5682ZM246.995 88.1125C250.671 86.1909 253.372 83.2004 255.061 79.5151L240.516 72.8486C240.205 73.5269 239.906 73.7636 239.582 73.9329L246.995 88.1125ZM255.051 79.5375C256.715 75.935 257.311 71.8447 257.311 67.6818H241.311C241.311 70.4584 240.892 72.0347 240.526 72.8262L255.051 79.5375ZM257.311 67.6818C257.311 63.541 256.713 59.4669 255.042 55.8752L240.535 62.6248C240.894 63.3968 241.311 64.9439 241.311 67.6818H257.311ZM255.061 55.9168C253.377 52.2414 250.683 49.2448 246.997 47.3314L239.626 61.5322C239.909 61.6794 240.201 61.8949 240.516 62.5832L255.061 55.9168ZM246.997 47.3314C243.583 45.5593 239.789 44.8864 235.97 44.8864V60.8864C237.97 60.8864 239.07 61.2438 239.626 61.5322L246.997 47.3314ZM235.97 44.8864H229.698V60.8864H235.97V44.8864ZM221.698 52.8864V82.5682H237.698V52.8864H221.698ZM275.434 89.5L271.469 96.4485L271.493 96.4622L271.517 96.4759L275.434 89.5ZM269.479 83.2727L262.372 86.9459L262.377 86.9541L262.381 86.9623L269.479 83.2727ZM269.479 64.25L262.364 60.593L262.364 60.593L269.479 64.25ZM275.366 57.9091L271.274 51.0347L271.265 51.0401L271.256 51.0455L275.366 57.9091ZM290.752 56.75L287.949 64.243L287.984 64.2558L288.018 64.2683L290.752 56.75ZM295.979 60.0455L290.351 65.7312L290.366 65.7455L290.38 65.7597L295.979 60.0455ZM299.479 65.5909L291.986 68.3943L291.99 68.4027L291.993 68.4111L299.479 65.5909ZM300.729 76.0227V84.0227H308.729V76.0227H300.729ZM271.252 76.0227H263.252V84.0227H271.252V76.0227ZM271.252 70.0227V62.0227H263.252V70.0227H271.252ZM291.616 70.0227V78.0227H299.616V70.0227H291.616ZM290.706 66.3182L283.736 70.2449L283.736 70.2449L290.706 66.3182ZM288.184 63.7955L284.141 70.6985L284.198 70.7325L284.257 70.7654L288.184 63.7955ZM280.57 63.8864L284.659 70.7626L284.672 70.7545L284.686 70.7463L280.57 63.8864ZM277.934 66.5909L284.891 70.5398L284.903 70.5198L284.914 70.4997L277.934 66.5909ZM276.956 70.3409L268.957 70.253L268.956 70.297V70.3409H276.956ZM277.911 80.5227L270.773 84.1348L270.79 84.1689L270.808 84.2028L277.911 80.5227ZM287.82 84L285.252 76.4235L285.252 76.4235L287.82 84ZM290.116 82.6364L284.598 76.8433L284.598 76.8433L290.116 82.6364ZM291.57 80.4091L292.097 72.4265L286.19 72.0366L284.09 77.5719L291.57 80.4091ZM300.525 81L308.352 82.6536L310.259 73.625L301.051 73.0174L300.525 81ZM297.729 86.6364L291.716 81.3603L291.712 81.3643L297.729 86.6364ZM292.32 90.3636L295.291 97.7914L295.304 97.7862L295.317 97.7809L292.32 90.3636ZM284.706 83.6818C282.202 83.6818 280.519 83.1803 279.35 82.5241L271.517 96.4759C275.531 98.7288 280.029 99.6818 284.706 99.6818V83.6818ZM279.398 82.5515C278.186 81.8596 277.276 80.9277 276.578 79.5832L262.381 86.9623C264.47 90.9814 267.53 94.201 271.469 96.4485L279.398 82.5515ZM276.586 79.5995C275.891 78.255 275.388 76.3771 275.388 73.7045H259.388C259.388 78.3956 260.279 82.8965 262.372 86.9459L276.586 79.5995ZM275.388 73.7045C275.388 71.1603 275.877 69.3031 276.594 67.907L262.364 60.593C260.294 64.6212 259.388 69.067 259.388 73.7045H275.388ZM276.594 67.907C277.33 66.4759 278.272 65.4935 279.475 64.7727L271.256 51.0455C267.399 53.355 264.416 56.5999 262.364 60.593L276.594 67.907ZM279.457 64.7834C280.583 64.1135 282.108 63.6364 284.32 63.6364V47.6364C279.684 47.6364 275.239 48.6743 271.274 51.0347L279.457 64.7834ZM284.32 63.6364C285.749 63.6364 286.936 63.8638 287.949 64.243L293.555 49.257C290.599 48.1513 287.497 47.6364 284.32 47.6364V63.6364ZM288.018 64.2683C288.953 64.6084 289.703 65.0896 290.351 65.7312L301.607 54.3597C299.286 52.0619 296.551 50.3461 293.486 49.2317L288.018 64.2683ZM290.38 65.7597C290.939 66.3072 291.509 67.1186 291.986 68.3943L306.972 62.7875C305.783 59.6086 304.019 56.7231 301.578 54.3312L290.38 65.7597ZM291.993 68.4111C292.412 69.5239 292.729 71.1203 292.729 73.3636H308.729C308.729 69.6676 308.213 66.0822 306.966 62.7707L291.993 68.4111ZM292.729 73.3636V76.0227H308.729V73.3636H292.729ZM300.729 68.0227H271.252V84.0227H300.729V68.0227ZM279.252 76.0227V70.0227H263.252V76.0227H279.252ZM271.252 78.0227H291.616V62.0227H271.252V78.0227ZM299.616 70.0227C299.616 67.4336 299.041 64.8138 297.676 62.3914L283.736 70.2449C283.672 70.1302 283.636 70.0258 283.619 69.9578C283.603 69.8946 283.616 69.9072 283.616 70.0227H299.616ZM297.676 62.3914C296.353 60.0423 294.46 58.1489 292.11 56.8255L284.257 70.7654C284.186 70.7252 284.078 70.6508 283.964 70.5375C283.851 70.4243 283.777 70.3164 283.736 70.2449L297.676 62.3914ZM292.227 56.8924C289.77 55.453 287.098 54.8636 284.479 54.8636V70.8636C284.595 70.8636 284.595 70.8761 284.511 70.8549C284.42 70.8322 284.287 70.7841 284.141 70.6985L292.227 56.8924ZM284.479 54.8636C281.722 54.8636 278.966 55.5192 276.454 57.0264L284.686 70.7463C284.643 70.7723 284.595 70.7963 284.547 70.8167C284.498 70.8371 284.456 70.8505 284.425 70.8588C284.358 70.8763 284.366 70.8636 284.479 70.8636V54.8636ZM276.482 57.0101C274.155 58.3936 272.278 60.3178 270.954 62.6821L284.914 70.4997C284.902 70.5212 284.865 70.5791 284.799 70.6467C284.733 70.7142 284.677 70.7517 284.659 70.7626L276.482 57.0101ZM270.976 62.6421C269.625 65.023 268.986 67.6169 268.957 70.253L284.956 70.4288C284.956 70.3862 284.959 70.3641 284.96 70.3598C284.96 70.3558 284.959 70.3658 284.954 70.3868C284.948 70.408 284.94 70.4345 284.928 70.4638C284.916 70.4931 284.903 70.519 284.891 70.5398L270.976 62.6421ZM268.956 70.3409V76.0455H284.956V70.3409H268.956ZM268.956 76.0455C268.956 78.7492 269.456 81.5329 270.773 84.1348L285.049 76.9107C285.093 76.9974 284.956 76.7963 284.956 76.0455H268.956ZM270.808 84.2028C272.134 86.7636 274.105 88.8853 276.663 90.3613L284.659 76.5023C284.724 76.5401 284.815 76.6063 284.901 76.6975C284.985 76.7871 285.018 76.8497 285.014 76.8427L270.808 84.2028ZM276.663 90.3613C279.271 91.8661 282.106 92.4545 284.866 92.4545V76.4545C284.615 76.4545 284.5 76.4282 284.489 76.4255C284.484 76.4242 284.5 76.4279 284.533 76.441C284.567 76.4542 284.61 76.4742 284.659 76.5023L276.663 90.3613ZM284.866 92.4545C286.695 92.4545 288.561 92.1961 290.388 91.5765L285.252 76.4235C285.292 76.4099 285.188 76.4545 284.866 76.4545V92.4545ZM290.388 91.5765C292.3 90.9284 294.093 89.8955 295.633 88.4295L284.598 76.8433C284.721 76.7268 284.851 76.6294 284.979 76.5539C285.104 76.4793 285.202 76.4404 285.252 76.4235L290.388 91.5765ZM295.633 88.4295C297.196 86.9408 298.322 85.1654 299.05 83.2463L284.09 77.5719C284.116 77.5043 284.167 77.3901 284.258 77.2507C284.35 77.1097 284.465 76.9699 284.598 76.8433L295.633 88.4295ZM291.043 88.3917L299.998 88.9826L301.051 73.0174L292.097 72.4265L291.043 88.3917ZM292.697 79.3464C292.518 80.1957 292.192 80.8171 291.716 81.3603L303.743 91.9124C306.084 89.2435 307.622 86.1073 308.352 82.6536L292.697 79.3464ZM291.712 81.3643C291.243 81.8993 290.524 82.4609 289.323 82.9464L295.317 97.7809C298.54 96.4785 301.427 94.5553 303.746 91.9085L291.712 81.3643ZM289.349 82.9358C288.277 83.3644 286.782 83.6818 284.706 83.6818V99.6818C288.389 99.6818 291.969 99.1204 295.291 97.7914L289.349 82.9358ZM317.073 56.0909L324.156 52.3715L321.908 48.0909H317.073V56.0909ZM323.482 68.2955L316.4 72.0149L323.396 85.3374L330.527 72.0867L323.482 68.2955ZM330.051 56.0909V48.0909H325.271L323.006 52.2997L330.051 56.0909ZM339.982 56.0909L346.904 60.1017L353.864 48.0909H339.982V56.0909ZM329.869 73.5455L322.947 69.5347L320.592 73.5993L322.994 77.6364L329.869 73.5455ZM340.255 91V99H354.325L347.13 86.9091L340.255 91ZM330.369 91L323.42 94.9649L325.723 99H330.369V91ZM323.482 78.9318L330.431 74.9669L323.424 62.6886L316.506 75.0166L323.482 78.9318ZM316.71 91V99H321.394L323.686 94.9152L316.71 91ZM306.71 91L299.831 86.9157L292.656 99H306.71V91ZM317.073 73.5455L323.952 77.6298L326.334 73.6174L324.015 69.5686L317.073 73.5455ZM307.073 56.0909V48.0909H293.27L300.132 60.0678L307.073 56.0909ZM309.991 59.8104L316.4 72.0149L330.565 64.576L324.156 52.3715L309.991 59.8104ZM330.527 72.0867L337.095 59.8821L323.006 52.2997L316.438 64.5042L330.527 72.0867ZM330.051 64.0909H339.982V48.0909H330.051V64.0909ZM333.06 52.0801L322.947 69.5347L336.791 77.5562L346.904 60.1017L333.06 52.0801ZM322.994 77.6364L333.38 95.0909L347.13 86.9091L336.744 69.4545L322.994 77.6364ZM340.255 83H330.369V99H340.255V83ZM337.317 87.0351L330.431 74.9669L316.534 82.8967L323.42 94.9649L337.317 87.0351ZM316.506 75.0166L309.733 87.0848L323.686 94.9152L330.459 82.847L316.506 75.0166ZM316.71 83H306.71V99H316.71V83ZM313.588 95.0843L323.952 77.6298L310.194 69.4611L299.831 86.9157L313.588 95.0843ZM324.015 69.5686L314.015 52.114L300.132 60.0678L310.132 77.5224L324.015 69.5686ZM307.073 64.0909H317.073V48.0909H307.073V64.0909Z" fill="#066426" mask="url(#path-2-outside-1_147_443)"/>
</svg>
