<svg width="250" height="250" viewBox="0 0 250 250" fill="none" xmlns="http://www.w3.org/2000/svg">
<path d="M125 125C113.541 125 103.732 120.92 95.5728 112.761C87.413 104.601 83.3332 94.792 83.3332 83.3337C83.3332 71.8753 87.413 62.0663 95.5728 53.9066C103.732 45.7469 113.541 41.667 125 41.667C136.458 41.667 146.267 45.7469 154.427 53.9066C162.587 62.0663 166.666 71.8753 166.666 83.3337C166.666 94.792 162.587 104.601 154.427 112.761C146.267 120.92 136.458 125 125 125ZM41.6665 208.334V179.167C41.6665 173.264 43.1856 167.839 46.2238 162.891C49.262 157.943 53.2984 154.167 58.3332 151.563C69.0971 146.181 80.0346 142.144 91.1457 139.453C102.257 136.762 113.541 135.417 125 135.417C136.458 135.417 147.743 136.762 158.854 139.453C169.965 142.144 180.903 146.181 191.667 151.563C196.701 154.167 200.738 157.943 203.776 162.891C206.814 167.839 208.333 173.264 208.333 179.167V208.334H41.6665ZM62.4998 187.5H187.5V179.167C187.5 177.257 187.022 175.521 186.068 173.959C185.113 172.396 183.854 171.181 182.291 170.313C172.916 165.625 163.455 162.11 153.906 159.766C144.357 157.422 134.722 156.25 125 156.25C115.278 156.25 105.642 157.422 96.0936 159.766C86.545 162.11 77.0832 165.625 67.7082 170.313C66.1457 171.181 64.887 172.396 63.9321 173.959C62.9773 175.521 62.4998 177.257 62.4998 179.167V187.5ZM125 104.167C130.729 104.167 135.634 102.127 139.713 98.0472C143.793 93.9673 145.833 89.0628 145.833 83.3337C145.833 77.6045 143.793 72.7 139.713 68.6201C135.634 64.5403 130.729 62.5003 125 62.5003C119.271 62.5003 114.366 64.5403 110.286 68.6201C106.206 72.7 104.167 77.6045 104.167 83.3337C104.167 89.0628 106.206 93.9673 110.286 98.0472C114.366 102.127 119.271 104.167 125 104.167Z" fill="#1D1B20"/>
</svg>
