<svg width="20" height="20" viewBox="0 0 20 20" fill="none" xmlns="http://www.w3.org/2000/svg">
<path d="M19 7.99989C18.9817 7.38762 18.8066 6.79029 18.4914 6.26503C18.1763 5.73978 17.7316 5.30417 17.2 4.99989C17.0725 4.12883 16.6354 3.3329 15.9686 2.75802C15.3019 2.18314 14.4503 1.86782 13.57 1.86989C13.2324 1.86931 12.8962 1.91301 12.57 1.99989C11.8817 1.34274 10.9666 0.976074 10.015 0.976074C9.06336 0.976074 8.14831 1.34274 7.46 1.99989C7.13379 1.91301 6.79758 1.86931 6.46 1.86989C5.57623 1.86299 4.71981 2.17612 4.04892 2.75143C3.37802 3.32675 2.93795 4.1254 2.81 4.99989C2.27652 5.30293 1.82987 5.73799 1.51291 6.26333C1.19596 6.78867 1.01934 7.38665 1 7.99989C0.734784 7.99989 0.48043 8.10524 0.292893 8.29278C0.105357 8.48032 0 8.73467 0 8.99989C4.45922e-05 10.7552 0.462128 12.4796 1.33981 13.9997C2.21749 15.5199 3.47985 16.7822 5 17.6599V18.9999C5 19.2651 5.10536 19.5195 5.29289 19.707C5.48043 19.8945 5.73478 19.9999 6 19.9999H14C14.2652 19.9999 14.5196 19.8945 14.7071 19.707C14.8946 19.5195 15 19.2651 15 18.9999V17.6599C16.5202 16.7822 17.7825 15.5199 18.6602 13.9997C19.5379 12.4796 20 10.7552 20 8.99989C20 8.73467 19.8946 8.48032 19.7071 8.29278C19.5196 8.10524 19.2652 7.99989 19 7.99989ZM3 7.99989C3.0254 7.68395 3.14465 7.38281 3.34243 7.13514C3.54022 6.88746 3.80751 6.70455 4.11 6.60989L4.94 6.34989L4.78 5.49989C4.78261 5.28451 4.82762 5.07177 4.91246 4.87379C4.9973 4.67581 5.1203 4.49649 5.27445 4.34605C5.4286 4.19562 5.61087 4.07702 5.81086 3.99704C6.01084 3.91705 6.22463 3.87725 6.44 3.87989C6.72879 3.87823 7.01366 3.94688 7.27 4.07989L8.08 4.52989L8.58 3.75989C8.73637 3.52683 8.9477 3.33583 9.19535 3.20377C9.44299 3.0717 9.71934 3.00262 10 3.00262C10.2807 3.00262 10.557 3.0717 10.8047 3.20377C11.0523 3.33583 11.2636 3.52683 11.42 3.75989L11.92 4.52989L12.73 4.07989C12.9863 3.94688 13.2712 3.87823 13.56 3.87989C13.9925 3.87445 14.4099 4.03908 14.7222 4.33833C15.0346 4.63758 15.2169 5.04752 15.23 5.47989L15.07 6.32989L15.89 6.60989C16.1925 6.70455 16.4598 6.88746 16.6576 7.13514C16.8554 7.38281 16.9746 7.68395 17 7.99989H3Z" fill="#066426"/>
</svg>
